<svg width="64" height="64" viewBox="0 0 64 64" fill="none" xmlns="http://www.w3.org/2000/svg">
  <circle cx="24" cy="32" r="20" fill="#028090" opacity="0.2"/>
  <path d="M24 8L28.4 11.3L34 10.8L36 16.1L41.2 18.4L40.1 24L43.2 28.8L40.1 33.6L41.2 39.2L36 41.5L34 46.8L28.4 46.3L24 49.6L19.6 46.3L14 46.8L12 41.5L6.8 39.2L7.9 33.6L4.8 28.8L7.9 24L6.8 18.4L12 16.1L14 10.8L19.6 11.3L24 8Z" fill="#028090"/>
  <path d="M24 16L15.5 40H20.4L22.3 34.4H28.8L30.7 40H35.5L27.1 16H24ZM23.8 30.6L25.7 25L27.7 30.6H23.8Z" fill="#F8FBFC"/>
  <path d="M41.5 14.2C45 14.4 47.9 16.1 50.1 19" stroke="#00B4D8" stroke-width="2.8" stroke-linecap="round"/>
  <path d="M43.9 9.8C48.8 10.3 52.8 12.7 56 16.6" stroke="#00B4D8" stroke-width="2.8" stroke-linecap="round" opacity="0.85"/>
</svg>
