<svg width="320" height="88" viewBox="0 0 320 88" fill="none" xmlns="http://www.w3.org/2000/svg">
  <rect width="320" height="88" rx="18" fill="transparent"/>
  <g transform="translate(6 4)">
    <circle cx="40" cy="34" r="24" fill="#028090" opacity="0.2"/>
    <path d="M40 7L45.6 11.5L52.8 10.9L55.4 17.7L62.1 20.7L60.7 27.8L64.7 33.9L60.7 40L62.1 47.1L55.4 50.1L52.8 56.9L45.6 56.3L40 60.8L34.4 56.3L27.2 56.9L24.6 50.1L17.9 47.1L19.3 40L15.3 33.9L19.3 27.8L17.9 20.7L24.6 17.7L27.2 10.9L34.4 11.5L40 7Z" fill="#028090"/>
    <path d="M40 17L29 48H35.4L37.9 40.7H46.4L48.9 48H55L44.1 17H40ZM39.7 35.7L42.1 28.4L44.7 35.7H39.7Z" fill="#F8FBFC"/>
    <path d="M62.5 15.5C66.7 15.8 70.2 17.8 72.9 21.3" stroke="#00B4D8" stroke-width="3" stroke-linecap="round"/>
    <path d="M65.4 10.2C71.3 10.8 76.2 13.7 80 18.4" stroke="#00B4D8" stroke-width="3" stroke-linecap="round" opacity="0.9"/>
    <path d="M68.1 4.7C76.1 5.7 82.7 9.8 87.6 16.2" stroke="#00B4D8" stroke-width="3" stroke-linecap="round" opacity="0.8"/>
  </g>
  <g fill="#F8FBFC">
    <text x="94" y="37" font-family="Rajdhani, sans-serif" font-size="28" font-weight="700" letter-spacing="1.2">ARICSSO</text>
    <text x="95" y="58" font-family="Rajdhani, sans-serif" font-size="20" font-weight="600" letter-spacing="4.2">INDIA</text>
  </g>
  <text x="96" y="75" fill="#38BFD8" font-family="Inter, sans-serif" font-size="11" font-style="italic">smart works</text>
</svg>
